# xmcd CD database file
#
# Track frame offsets:
#	150
#	15494
#	30272
#	46076
#	59865
#	70239
#	87031
#	103202
#	115657
#	128455
#
# Disc length: 1881 seconds
#
# Revision: 0
# Processed by: cddbd v1.5.2PL0 Copyright (c) Steve Scherf et al.
# Submitted via: CDex 1.51
#
DISCID=7607570a
DTITLE=Dangerous Ground - Jumpin' Blues
DYEAR=2001
DGENRE=Blues
TTITLE0=Route 66
TTITLE1=Mr Blues
TTITLE2=Rack 'em Up
TTITLE3=I'll Always Be In Love With You
TTITLE4=He's A Tramp
TTITLE5=My Babe
TTITLE6=Hit The Road Jack
TTITLE7=Straight Up
TTITLE8=Nosey Joe
TTITLE9=Texas Flood
EXTD=YEAR: 2001
EXTT0=
EXTT1=
EXTT2=
EXTT3=
EXTT4=
EXTT5=
EXTT6=
EXTT7=
EXTT8=
EXTT9=
PLAYORDER=
